<?xml version="1.0" encoding="UTF-8"?><svg xmlns="http://www.w3.org/2000/svg" xmlns:xlink="http://www.w3.org/1999/xlink" viewBox="0 0 256 256"><defs><style>.o{fill:url(#f);}.p{fill:url(#g);}.q{fill:url(#i);}.r{fill:url(#h);}.s{fill:url(#e);}.t{fill:url(#j);}.u{fill:#141918;}</style><linearGradient id="e" x1="77.91" y1="159.16" x2="86.21" y2="167.46" gradientTransform="matrix(1, 0, 0, 1, 0, 0)" gradientUnits="userSpaceOnUse"><stop offset="0" stop-color="#17e58f"/><stop offset=".5" stop-color="#17e5c3"/><stop offset="1" stop-color="#17d4e5"/></linearGradient><linearGradient id="f" x1="94.15" y1="88.57" x2="122.51" y2="116.93" xlink:href="#e"/><linearGradient id="g" x1="80.62" y1="156.51" x2="94.96" y2="170.86" xlink:href="#e"/><linearGradient id="h" x1="82.7" y1="156.87" x2="117.71" y2="191.88" xlink:href="#e"/><linearGradient id="i" x1="122.16" y1="90.37" x2="177.09" y2="145.31" xlink:href="#e"/><linearGradient id="j" x1="150.36" y1="118.47" x2="196.97" y2="165.07" xlink:href="#e"/></defs><g id="a"/><g id="b"/><g id="c"/><g id="d"><rect class="u" x="-4.94" y="-4.94" width="265.88" height="265.88"/><g><path class="s" d="M72.86,164.85c.05,.12,.11,.24,.16,.35,.04,.08,.08,.17,.12,.25,.06,.12,.13,.24,.2,.35,.04,.07,.09,.15,.13,.22,.08,.13,.17,.25,.25,.37,.04,.06,.08,.12,.12,.18,.13,.18,.27,.35,.42,.51h.01c.14,.17,.29,.33,.44,.47,.05,.05,.11,.1,.16,.15,.11,.1,.22,.2,.33,.29,.07,.05,.14,.11,.21,.16,.11,.08,.21,.16,.32,.24,.08,.05,.15,.1,.23,.15,.11,.07,.22,.14,.33,.2,.08,.05,.16,.09,.25,.14,.11,.06,.22,.12,.34,.17,.09,.04,.17,.08,.26,.12,.12,.05,.23,.1,.35,.14,.09,.03,.18,.07,.27,.1,.12,.04,.25,.08,.37,.12,.09,.03,.18,.05,.27,.08,.13,.03,.26,.06,.4,.09,.09,.02,.17,.04,.26,.05,.15,.03,.3,.04,.45,.06,.07,0,.15,.02,.22,.03,.23,.02,.46,.03,.69,.03,4.52,0,8.2-3.68,8.2-8.19,0-.34-.03-.68-.07-1.02,0-.04,0-.09-.01-.13-.04-.32-.11-.63-.19-.93-.01-.05-.03-.11-.04-.16-.08-.3-.19-.59-.3-.88-.02-.05-.04-.1-.06-.15-.13-.29-.26-.57-.42-.85-.02-.03-.03-.05-.05-.08-.16-.27-.34-.54-.53-.79-.01-.02-.03-.04-.04-.05-.2-.25-.41-.49-.63-.72-.03-.04-.07-.07-.1-.11-.22-.22-.46-.42-.7-.61-.04-.03-.09-.07-.13-.1-.25-.19-.51-.36-.79-.52-.02,0-.03-.02-.05-.03-.18,.14-.38,.28-.56,.42l-.08,.06c-.38,.29-.75,.57-1.12,.86-.28,.21-.56,.42-.83,.64-.03,.02-.05,.04-.08,.06-.55,.42-1.07,.84-1.59,1.26-.12,.1-.24,.19-.36,.28-1.14,.92-2.22,1.81-3.24,2.68l-.1,.09c-.51,.44-1.01,.88-1.49,1.31l-.04,.03c-.48,.43-.94,.85-1.39,1.27-.04,.04-.08,.08-.12,.11-.04,.04-.09,.08-.13,.12-.23,.22-.46,.43-.68,.65,.02,.07,.05,.13,.07,.2,.03,.09,.07,.18,.11,.27Z"/><path class="o" d="M65.69,166.07h0c.34-.41,.71-.83,1.09-1.25l.03-.03c.61-.68,1.27-1.37,1.99-2.1,.04-.04,.08-.08,.12-.11l.17-.17h.01v-.03c.22-.2,.43-.41,.64-.62,.58-.56,1.19-1.13,1.82-1.71,.25-.23,.49-.45,.75-.68,.22-.19,.44-.39,.66-.58,.22-.19,.43-.38,.65-.57,.3-.26,.6-.51,.9-.77,.13-.11,.25-.22,.38-.32,.18-.15,.35-.3,.54-.46,.56-.47,1.13-.93,1.72-1.4,.34-.28,.7-.56,1.05-.84l.08-.06,.04-.03c.86-.68,1.74-1.36,2.66-2.06,.05-.04,.1-.09,.15-.12,.5-.36,.99-.74,1.49-1.11l.45-.34h0c.16-.12,.34-.25,.5-.37,.41-.3,.83-.61,1.26-.92,.24-.17,.47-.35,.72-.52,.71-.51,1.43-1.02,2.17-1.54,.1-.07,.19-.13,.28-.2,.22-.15,.44-.31,.66-.46,.41-.28,.82-.57,1.23-.85,.4-.27,.79-.55,1.19-.82,.22-.15,.45-.31,.68-.46,.48-.33,.96-.66,1.45-.99,2.2-1.48,4.48-2.86,6.79-4.16,.04-.06,.08-.13,.12-.19,.42-.7,.82-1.41,1.2-2.13,.04-.08,.08-.16,.12-.24,.4-.76,.77-1.53,1.12-2.3,2-4.34,3.36-8.96,4.05-13.74,.03-.17,.05-.36,.08-.56,.33-2.44,.81-6.69,1.19-10.16,.29-2.58,.51-4.61,.62-5.34,.1-.7,.22-1.39,.36-2.08,0-.02,0-.04,.01-.06,.12-.63,.26-1.26,.42-1.88,.04-.18,.09-.35,.14-.53,.12-.46,.24-.91,.38-1.36,.07-.23,.14-.46,.21-.69,.13-.41,.26-.82,.4-1.22,.04-.1,.07-.21,.1-.31,0-.02,.02-.04,.03-.05,5.73-15.89,20.68-26.66,37.6-26.01,.74,.03,1.5,.08,2.33,.15,2.71,.11,5.44-.11,8.13-.64h.02c.72-.15,1.42-.32,2.12-.5,.22-.06,.45-.12,.67-.18,.62-.17,1.23-.36,1.83-.57,.25-.09,.49-.18,.74-.27,4.55-1.67,8.65-4.23,12.09-7.48-6.48,4.1-14.4,5.99-22.57,4.81-2.36-.34-4.69-.94-6.91-1.77-.02,0-.04-.02-.06-.03-.84-.31-1.69-.67-2.53-1.07-1.95-.72-3.98-1.24-6.04-1.54-1.43-.21-2.85-.31-4.26-.31-2.99,0-5.95,.46-8.83,1.38-10.24,3.27-18.55,12.38-21.69,23.78-5.72,20.75-13.06,38.2-22.45,53.35-1.19,1.92-8.64,9.97-8.7,10.04-3.7,3.49-6.24,8.91-7.6,16.13-.1,.51-.18,1.01-.25,1.51-.03,.23-.06,.45-.09,.68,.19-.24,.37-.48,.56-.72,.32-.4,.65-.81,1.01-1.23Z"/><path class="p" d="M71.9,170.27c-.15-.15-.3-.31-.45-.47-.07-.08-.14-.16-.21-.23-.15-.17-.29-.35-.43-.53-.05-.07-.1-.13-.15-.2-.18-.25-.36-.51-.52-.77-.03-.05-.06-.1-.09-.15-.1-.17-.21-.34-.3-.51l-.04,.05c-.3,.34-.6,.67-.88,1-.04,.05-.08,.1-.12,.14-.14,.16-.26,.32-.4,.48-.18,.22-.36,.43-.53,.65-.13,.16-.25,.33-.38,.49-.31,.4-.63,.81-.93,1.21-.08,.1-.16,.21-.23,.31-.38,.51-.75,1.02-1.12,1.53-.07,.1-.14,.2-.21,.3h0s-.06,.09-.09,.14c2.94,1.89,6.28,3.15,9.76,3.65,6.48,.94,12.94-.71,18.19-4.63,5.25-3.92,8.66-9.66,9.6-16.14,.64-4.47,.06-8.93-1.67-13.03-.06,.03-.12,.07-.18,.1-.21,.12-.42,.25-.62,.37-.33,.2-.67,.39-1,.6-.41,.25-.83,.51-1.26,.78-.14,.09-.29,.18-.43,.27-.56,.36-1.14,.74-1.74,1.14-1.21,.81-2.38,1.62-3.53,2.41-.24,.17-.49,.34-.73,.51-.39,.27-.77,.54-1.16,.81-.48,.34-.95,.67-1.41,1-.18,.13-.36,.25-.53,.38-.08,.06-.16,.12-.24,.17,.03,.02,.06,.05,.09,.08,.32,.25,.62,.51,.91,.79,.04,.04,.08,.09,.13,.13,.26,.25,.5,.52,.73,.8,.05,.06,.11,.13,.16,.19,.25,.31,.48,.63,.7,.96,.04,.07,.08,.14,.13,.2,.19,.3,.36,.61,.52,.92,.03,.06,.07,.13,.1,.19,.17,.36,.33,.73,.47,1.1,.03,.09,.06,.17,.09,.26,.12,.35,.23,.71,.32,1.07,.01,.05,.03,.09,.04,.14,.09,.4,.16,.8,.21,1.21,.01,.1,.02,.19,.03,.29,.04,.42,.07,.84,.07,1.26,0,6.68-5.43,12.11-12.11,12.11-.32,0-.65-.02-.97-.04-.1,0-.2-.02-.3-.03-.22-.02-.45-.05-.67-.09-.11-.02-.22-.04-.32-.06-.22-.04-.44-.09-.66-.15-.09-.02-.18-.04-.27-.07-.3-.08-.6-.18-.9-.28-.02,0-.05-.02-.07-.03-.27-.1-.53-.21-.79-.33-.09-.04-.18-.08-.27-.13-.2-.09-.39-.19-.58-.3-.09-.05-.19-.1-.28-.16-.19-.11-.39-.23-.57-.36-.07-.05-.15-.09-.22-.14-.25-.18-.5-.36-.74-.55-.03-.03-.06-.06-.1-.08-.21-.17-.41-.35-.6-.53-.07-.07-.14-.14-.21-.21Z"/><path class="r" d="M116.1,136.09c-.18,.07-.37,.15-.55,.23-.34,.14-.69,.29-1.04,.43-.31,.13-.61,.26-.92,.39-.28,.12-.55,.24-.83,.36-.59,.26-1.19,.52-1.79,.79-.12,.05-.24,.11-.36,.16-.53,.24-1.07,.49-1.6,.74-.15,.07-.31,.15-.46,.22-.57,.27-1.14,.55-1.72,.83-.07,.03-.14,.07-.21,.1-.84,.42-1.68,.85-2.52,1.3,2.14,4.85,2.88,10.16,2.11,15.48h0c-1.09,7.52-5.04,14.17-11.13,18.72-4.97,3.72-10.88,5.67-16.97,5.67-1.37,0-2.75-.1-4.13-.3-4.06-.59-7.95-2.06-11.37-4.28-4.6,7.28-7.38,14.45-8.43,21.73-.55,3.79-.7,7.6-.46,11.38,2.88-2.18,5.2-4.59,6.91-7.2,.2-.3,.46-.73,.74-1.18,.46-.73,.93-1.49,1.27-1.98,8.14-11.66,22.63-17.86,36.93-15.79,.49,.07,1.62,.29,2.81,.51,1.04,.2,2.21,.42,2.61,.48,16.51,2.38,32.38-7.33,37.73-23.1h0s.02-.05,.02-.07c.05-.16,.1-.32,.15-.48,.11-.34,.22-.68,.32-1.03,.05-.16,.08-.33,.13-.49,.09-.35,.19-.69,.28-1.04,.02-.09,.04-.19,.06-.28,.22-.94,.4-1.88,.54-2.83,1.37-9.45-1.23-19.04-7.15-26.49-3,.77-11.39,3.08-20.99,7Z"/><path class="q" d="M165.36,72.23c-1.92,.7-3.91,1.27-5.96,1.67h0c-.39,.08-.78,.15-1.17,.22-15.93,5.74-30.78,13.93-44.16,24.34-.01,.04-.03,.07-.04,.11-.12,.34-.22,.69-.33,1.04-.06,.19-.12,.39-.18,.58-.15,.52-.29,1.05-.42,1.58v.05c-.29,1.14-.51,2.3-.68,3.48-.1,.66-.33,2.78-.6,5.22-.42,3.77-.95,8.46-1.29,10.83-.74,5.15-2.21,10.13-4.36,14.8l-.03,.06c9.72-4.72,19.29-7.88,25.24-9.61,.57-.19,1.13-.37,1.7-.55,.53-.17,1.05-.35,1.58-.51,.8-.25,1.6-.47,2.41-.7,.47-.14,.94-.28,1.41-.41,.87-.24,1.73-.46,2.6-.68,.41-.11,.82-.22,1.24-.32,.9-.22,1.8-.42,2.7-.62,.39-.09,.77-.18,1.16-.27,.93-.2,1.86-.38,2.79-.55,.36-.07,.72-.15,1.08-.21,.94-.17,1.88-.32,2.81-.47,.36-.06,.71-.12,1.07-.18,.94-.14,1.88-.26,2.82-.39,.36-.05,.72-.1,1.08-.15,.96-.12,1.91-.21,2.87-.31,.35-.03,.69-.08,1.04-.11,.93-.09,1.87-.15,2.81-.22,.37-.03,.75-.06,1.12-.09,.89-.06,1.79-.09,2.69-.13,.42-.02,.83-.05,1.25-.06,.86-.03,1.72-.03,2.58-.04,.46,0,.91-.02,1.37-.02,.83,0,1.67,.02,2.5,.03,.49,0,.97,0,1.46,.02,.83,.02,1.67,.07,2.5,.1,.49,.02,.98,.03,1.47,.06,.77,.04,1.54,.11,2.31,.16,.56,.04,1.11,.07,1.67,.12,.61,.05,1.22,.12,1.83,.18,.72,.07,1.44,.13,2.16,.22,1.33,.15,2.66,.33,3.99,.52,1.02,.15,2.04,.31,3.06,.48,.31,.05,.62,.11,.92,.16,.74,.13,1.48,.26,2.22,.41,.19,.04,.38,.07,.57,.1-7.18-19.3-19.17-36.49-34.85-49.95Z"/><path class="t" d="M201.73,126.49c-.12-.03-.25-.05-.37-.08-1.27-.27-2.55-.52-3.84-.75-.18-.03-.37-.06-.56-.1-1.36-.24-2.72-.46-4.08-.66-1.2-.17-2.4-.33-3.6-.47-.41-.05-.82-.09-1.23-.13-.79-.09-1.59-.17-2.38-.24-.48-.04-.95-.08-1.43-.12-.73-.06-1.46-.11-2.19-.16-.49-.03-.98-.06-1.48-.08-.73-.04-1.46-.07-2.19-.09-.47-.02-.95-.03-1.42-.05-.81-.02-1.62-.03-2.42-.03-.39,0-.77-.01-1.16,0-1.17,0-2.34,.02-3.51,.06-.32,0-.64,.03-.96,.04-.87,.03-1.74,.07-2.61,.12-.46,.03-.91,.06-1.37,.09-.73,.05-1.47,.11-2.2,.17-.49,.04-.97,.09-1.46,.14-.71,.07-1.43,.15-2.14,.23-.48,.06-.96,.11-1.44,.17-.74,.09-1.49,.2-2.23,.31-.44,.06-.88,.12-1.31,.19-.92,.14-1.83,.3-2.74,.46-.26,.05-.51,.08-.77,.13-1.16,.21-2.31,.44-3.47,.69-.36,.08-.72,.16-1.08,.24-.81,.18-1.61,.36-2.42,.56-.44,.11-.88,.22-1.32,.33-.44,.11-.88,.23-1.32,.34,.15,.2,.29,.41,.43,.62,.16,.23,.33,.47,.49,.7,.22,.32,.42,.65,.63,.98,.14,.23,.29,.46,.43,.69,.22,.36,.42,.73,.62,1.09,.11,.21,.24,.41,.35,.62,.28,.53,.55,1.06,.8,1.59,.05,.11,.1,.22,.15,.33,.25,.53,.48,1.06,.7,1.6,.09,.23,.17,.45,.26,.68,.15,.38,.29,.76,.43,1.14,.09,.26,.17,.53,.26,.79,.12,.35,.23,.71,.34,1.07,.08,.28,.16,.56,.23,.84,.09,.35,.19,.7,.27,1.05,.07,.29,.13,.58,.2,.87,.08,.35,.15,.69,.21,1.04,.06,.3,.11,.59,.16,.89,.06,.35,.11,.69,.16,1.04,.04,.3,.08,.6,.11,.9,.04,.35,.07,.7,.1,1.05,.03,.3,.05,.6,.07,.9,.02,.36,.03,.71,.05,1.07,.01,.3,.02,.59,.02,.89,0,.37,0,.74-.01,1.11,0,.29,0,.58-.02,.87-.02,.4-.05,.79-.08,1.19-.02,.26-.03,.52-.05,.79-.05,.54-.12,1.08-.19,1.62-.02,.11-.02,.23-.04,.34,0,.06-.02,.12-.03,.18-.07,.47-.15,.95-.24,1.42-.04,.19-.08,.38-.12,.58-.05,.23-.09,.47-.14,.7,15.9-6.57,33.23-8.73,50.39-6.25,3.18,.46,6.34,1.08,9.44,1.84-.77-9.56-2.68-19-5.69-28.12Z"/></g></g><g id="k"/><g id="l"/><g id="m"/><g id="n"/></svg>