<?xml version="1.0" encoding="UTF-8"?><svg xmlns="http://www.w3.org/2000/svg" xmlns:xlink="http://www.w3.org/1999/xlink" viewBox="0 0 256 256"><defs><style>.j{fill:url(#f);}</style><linearGradient id="f" x1="27.36" y1="123.63" x2="233.91" y2="123.63" gradientTransform="matrix(1, 0, 0, 1, 0, 0)" gradientUnits="userSpaceOnUse"><stop offset="0" stop-color="#17e58f"/><stop offset=".5" stop-color="#17e5c3"/><stop offset="1" stop-color="#17d4e5"/></linearGradient></defs><g id="a"/><g id="b"/><g id="c"/><g id="d"/><g id="e"><path class="j" d="M225.7,121.04h0c-8.98-26.41-24.73-50-45.63-68.5,14.5-7.23,24.95-21.24,27.35-37.81,.11-.78,.2-1.56,.29-2.33,.15-1.33-.78-2.55-2.11-2.75-1.33-.2-2.58,.68-2.83,2-3.78,19.69-22.29,32.87-42.14,30-2.64-.38-5.25-1.05-7.75-1.98-.03-.01-.07-.03-.1-.04-.96-.35-1.95-.77-2.92-1.24-.05-.03-.11-.05-.16-.07-.03-.01-.06-.02-.09-.03h0c-2.84-1.06-5.81-1.83-8.82-2.26-6.44-.93-12.81-.41-18.95,1.55-14.65,4.68-26.53,17.63-30.98,33.79-7.17,26.02-16.36,47.86-28.08,66.79-.98,1.58-8.01,9.33-10.4,11.92-5.43,5.15-9.15,12.95-11.06,23.17-.14,.71-.26,1.43-.36,2.16-.43,2.98-.58,6.01-.47,9.03-6.75,10.33-10.81,20.53-12.32,30.97-.97,6.68-1.03,13.42-.2,20.04,.11,.85,.64,1.59,1.42,1.95,.34,.16,.7,.24,1.06,.24,.47,0,.93-.13,1.34-.39,5.9-3.75,10.52-8.14,13.74-13.04,.27-.41,.63-.99,1.01-1.6,.52-.84,1.12-1.79,1.48-2.31,9.31-13.35,25.93-20.43,42.32-18.07,.51,.07,2.02,.36,3.36,.62,1.51,.29,2.94,.56,3.56,.65,2.38,.34,4.74,.51,7.08,.51,20.41,0,38.99-12.72,46.14-32.23,20.47-9.31,43.08-12.53,65.46-9.3,5.02,.73,10.01,1.77,14.83,3.11,.78,.22,1.61,.04,2.24-.46,.63-.51,.97-1.29,.93-2.09-.83-14.3-3.59-28.43-8.21-42Zm-6.22-2.56c-.24-.05-.48-.09-.73-.13-.94-.18-1.89-.35-2.84-.52-.39-.07-.79-.14-1.18-.2-1.3-.22-2.6-.43-3.91-.61-1.7-.25-3.4-.47-5.09-.66-.92-.11-1.84-.19-2.75-.28-.78-.08-1.56-.17-2.33-.23-.71-.06-1.42-.1-2.13-.15-.98-.07-1.97-.15-2.95-.21-.63-.04-1.25-.05-1.87-.08-1.06-.05-2.13-.1-3.19-.13-.62-.02-1.24-.01-1.86-.02-1.07-.02-2.13-.04-3.19-.04-.58,0-1.16,.02-1.74,.03-1.1,.01-2.2,.02-3.3,.06-.53,.02-1.06,.05-1.6,.07-1.14,.05-2.29,.09-3.43,.16-.48,.03-.95,.08-1.43,.11-1.2,.08-2.39,.17-3.58,.28-.44,.04-.89,.1-1.33,.14-1.22,.12-2.45,.24-3.67,.39-.46,.06-.92,.13-1.38,.19-1.2,.16-2.4,.31-3.6,.49-.46,.07-.91,.16-1.37,.23-1.2,.19-2.4,.38-3.59,.6-.46,.08-.92,.19-1.38,.27-1.19,.23-2.38,.45-3.56,.71-.49,.11-.99,.23-1.48,.34-1.15,.26-2.3,.51-3.44,.79-.53,.13-1.05,.28-1.58,.41-1.11,.28-2.22,.56-3.32,.87-.6,.17-1.2,.35-1.8,.53-1.02,.3-2.05,.58-3.07,.9-.67,.21-1.34,.44-2.02,.65-.72,.23-1.45,.46-2.17,.7-7.58,2.21-19.8,6.24-32.21,12.27l.03-.07c2.74-5.96,4.62-12.32,5.57-18.89,.44-3.02,1.11-9.01,1.64-13.82,.35-3.12,.65-5.82,.77-6.67,.22-1.5,.5-2.99,.85-4.44,0-.02,.01-.04,.02-.06,.16-.68,.34-1.35,.53-2.02,.07-.25,.15-.49,.23-.74,.14-.44,.27-.89,.42-1.32,.02-.05,.04-.1,.05-.14,17.08-13.29,36.04-23.74,56.37-31.07,.5-.08,1-.17,1.49-.27h0c2.61-.52,5.15-1.23,7.6-2.13,20.02,17.18,35.32,39.12,44.49,63.75Zm-144.65,43.99s.03,.05,.05,.07c.25,.32,.47,.66,.68,1.01,.02,.03,.04,.07,.06,.1,.2,.35,.38,.71,.54,1.08,.03,.06,.05,.12,.08,.19,.15,.36,.28,.74,.39,1.12,.02,.07,.04,.14,.06,.21,.1,.39,.18,.79,.24,1.19,0,.05,.01,.11,.02,.16,.05,.43,.09,.86,.09,1.3,0,5.77-4.69,10.46-10.46,10.46-.29,0-.59-.01-.88-.04-.1,0-.19-.02-.28-.03-.19-.02-.38-.04-.57-.08-.11-.02-.22-.04-.33-.07-.17-.03-.34-.07-.51-.11-.12-.03-.23-.06-.34-.1-.16-.05-.32-.09-.47-.15-.11-.04-.23-.08-.34-.13-.15-.06-.3-.12-.45-.18-.11-.05-.22-.1-.33-.15-.15-.07-.29-.14-.43-.22-.11-.06-.21-.12-.32-.18-.14-.08-.28-.17-.42-.26-.1-.06-.2-.13-.29-.19-.14-.1-.27-.2-.41-.3-.09-.07-.18-.13-.26-.2-.14-.12-.28-.24-.42-.37-.07-.06-.14-.12-.21-.19-.2-.19-.38-.38-.56-.59l-.02-.02c-.19-.21-.36-.43-.53-.65-.06-.07-.1-.15-.16-.23-.11-.15-.22-.31-.32-.47-.06-.09-.11-.19-.17-.29-.09-.15-.17-.3-.25-.45-.06-.11-.11-.21-.16-.32-.07-.15-.14-.3-.21-.45-.05-.11-.09-.23-.14-.35-.03-.08-.06-.17-.09-.25,.29-.28,.57-.55,.87-.83,.06-.05,.11-.1,.16-.16,.05-.05,.1-.1,.15-.14,.57-.53,1.16-1.07,1.77-1.62l.05-.04c.61-.55,1.25-1.1,1.9-1.67l.13-.11c1.3-1.11,2.68-2.25,4.13-3.42,.15-.12,.3-.24,.45-.36,.66-.53,1.34-1.06,2.04-1.6,.04-.03,.07-.05,.1-.08,.35-.27,.7-.54,1.06-.81,.47-.36,.94-.72,1.43-1.09l.1-.07c.23-.18,.48-.36,.71-.53,.02,.01,.04,.02,.06,.03,.35,.2,.69,.43,1.01,.67,.06,.04,.12,.09,.17,.13,.31,.24,.62,.51,.9,.78,.05,.04,.09,.09,.13,.14,.29,.29,.56,.59,.81,.92Zm-28.08,21.6h0c.09-.13,.18-.26,.27-.39,.46-.65,.94-1.3,1.43-1.95,.1-.13,.2-.27,.3-.4,.39-.51,.79-1.03,1.19-1.55,.16-.21,.32-.42,.48-.63,.21-.27,.45-.55,.67-.82,.17-.21,.33-.41,.51-.62,.05-.06,.11-.12,.16-.18,.36-.42,.73-.84,1.12-1.27l.06-.06c.12,.22,.25,.44,.38,.66,.04,.06,.07,.13,.11,.2,.21,.34,.43,.66,.67,.98,.06,.09,.13,.17,.2,.25,.18,.23,.36,.46,.55,.68,.09,.1,.18,.2,.27,.3,.19,.2,.38,.4,.57,.6,.09,.09,.18,.18,.27,.27,.25,.23,.5,.46,.77,.68,.04,.03,.08,.07,.12,.11,.31,.25,.63,.48,.95,.71,.09,.06,.19,.12,.28,.18,.24,.16,.48,.31,.73,.46,.12,.07,.23,.13,.35,.2,.24,.13,.49,.26,.74,.38,.11,.05,.22,.11,.34,.16,.33,.15,.67,.29,1.01,.42,.03,.01,.06,.02,.09,.04,.37,.14,.76,.25,1.14,.36,.12,.03,.23,.06,.35,.09,.28,.07,.56,.13,.84,.19,.14,.03,.27,.05,.41,.07,.28,.05,.56,.08,.85,.11,.13,.01,.25,.03,.38,.04,.41,.03,.82,.05,1.23,.05,8.52,0,15.46-6.94,15.46-15.46,0-.54-.04-1.08-.09-1.61-.01-.12-.03-.25-.04-.37-.07-.52-.15-1.04-.27-1.54-.01-.06-.03-.12-.05-.17-.11-.46-.25-.92-.4-1.36-.04-.11-.07-.22-.11-.33-.18-.48-.37-.95-.6-1.4-.04-.08-.08-.16-.13-.24-.2-.4-.43-.79-.67-1.18-.05-.09-.1-.17-.16-.26-.28-.42-.58-.83-.89-1.23-.07-.08-.14-.16-.21-.25-.3-.35-.6-.69-.93-1.02-.05-.05-.11-.11-.16-.16-.37-.36-.76-.69-1.17-1.01-.04-.03-.07-.07-.11-.1,.1-.07,.2-.15,.31-.22,.22-.16,.45-.32,.68-.48,.59-.42,1.2-.85,1.81-1.28,.49-.34,.98-.69,1.48-1.03,.31-.21,.62-.43,.93-.65,1.47-1.02,2.97-2.04,4.51-3.08,.77-.52,1.5-1,2.22-1.45,.18-.11,.37-.23,.55-.34,.54-.34,1.08-.68,1.6-1,.43-.26,.85-.51,1.28-.76,.27-.16,.53-.32,.8-.47,.07-.04,.15-.09,.22-.13,2.22,5.22,2.95,10.92,2.14,16.63-1.2,8.28-5.55,15.59-12.25,20.6-6.7,5.01-14.95,7.11-23.22,5.91-4.44-.64-8.7-2.24-12.45-4.66,.04-.06,.08-.11,.12-.17ZM114.07,78.61c7.99-12.84,21.84-21.1,37.28-21.06-13.11,5.73-25.58,12.77-37.28,21.06ZM45.88,176.13c.09-.64,.19-1.27,.32-1.93,1.73-9.23,4.97-16.14,9.7-20.59,.08-.08,9.59-10.36,11.11-12.81,11.98-19.34,21.35-41.61,28.65-68.09,4.01-14.55,14.62-26.19,27.68-30.36,3.67-1.17,7.45-1.76,11.27-1.76,1.8,0,3.62,.13,5.44,.39,2.63,.38,5.23,1.04,7.71,1.97,1.07,.51,2.15,.97,3.22,1.36,.03,.01,.06,.02,.08,.03,2.84,1.06,5.81,1.82,8.82,2.26,10.44,1.51,20.55-.9,28.81-6.13-4.39,4.15-9.63,7.41-15.44,9.55-.31,.12-.62,.23-.94,.34-.77,.26-1.55,.5-2.33,.73-.28,.08-.57,.16-.85,.23-.89,.23-1.8,.46-2.71,.64h-.02c-3.43,.68-6.91,.96-10.37,.83-1.06-.1-2.04-.17-2.98-.2-21.59-.84-40.67,12.91-47.99,33.2,0,.02-.03,.04-.04,.07-.05,.13-.09,.27-.13,.4-.18,.51-.35,1.03-.52,1.56-.09,.29-.18,.58-.27,.87-.17,.58-.33,1.16-.48,1.74-.06,.23-.12,.45-.18,.68-.19,.79-.37,1.59-.53,2.4,0,.02-.01,.05-.02,.07-.17,.88-.33,1.76-.46,2.65-.13,.92-.42,3.52-.79,6.81-.49,4.43-1.1,9.85-1.52,12.96-.03,.25-.07,.5-.1,.72-.88,6.1-2.62,11.99-5.17,17.54-.45,.99-.93,1.96-1.43,2.93-.05,.1-.1,.2-.16,.3-.48,.92-1,1.82-1.53,2.72-.05,.08-.1,.16-.15,.25-2.95,1.65-5.87,3.42-8.67,5.31-.63,.43-1.24,.84-1.85,1.26-.29,.2-.58,.4-.87,.59-.51,.35-1.02,.7-1.52,1.05-.53,.37-1.05,.73-1.57,1.09-.28,.2-.57,.39-.85,.59-.12,.09-.24,.17-.36,.26-.94,.66-1.87,1.32-2.77,1.97-.31,.22-.61,.44-.92,.67-.54,.39-1.08,.78-1.6,1.17-.21,.15-.43,.31-.64,.47h0l-.57,.43c-.64,.48-1.27,.96-1.91,1.42-.07,.05-.13,.1-.19,.16-1.18,.89-2.31,1.77-3.4,2.63l-.05,.04-.1,.08c-.45,.36-.9,.72-1.34,1.07-.75,.6-1.48,1.19-2.19,1.79-.23,.2-.45,.39-.68,.58-.16,.14-.32,.28-.49,.41-.39,.33-.77,.66-1.15,.99-.28,.24-.56,.49-.83,.73-.28,.25-.57,.5-.84,.74-.33,.29-.64,.58-.96,.87-.8,.73-1.59,1.46-2.32,2.18-.27,.27-.54,.54-.8,.8,0,0,0,.01-.02,.02,0,0-.01,0-.02,.01l-.22,.22c-.05,.05-.11,.09-.16,.15-.92,.93-1.75,1.82-2.54,2.68l-.04,.04c-.49,.54-.96,1.07-1.4,1.59h0c-.45,.53-.88,1.06-1.28,1.57-.24,.31-.48,.62-.72,.92,.04-.29,.07-.58,.12-.86Zm52.07,22.43c-.51-.07-2.01-.36-3.34-.62-1.52-.29-2.95-.57-3.58-.66-18.26-2.64-36.75,5.27-47.14,20.15-.44,.63-1.04,1.59-1.62,2.53-.36,.57-.7,1.12-.95,1.5-2.19,3.33-5.14,6.41-8.82,9.19-.31-4.82-.11-9.69,.59-14.53,1.34-9.3,4.89-18.45,10.76-27.74,4.37,2.83,9.33,4.71,14.51,5.46,1.76,.25,3.52,.38,5.27,.38,7.78,0,15.32-2.49,21.66-7.24,7.77-5.81,12.82-14.29,14.2-23.89h0c.98-6.79,.04-13.57-2.7-19.76,1.07-.57,2.14-1.12,3.22-1.66,.09-.04,.18-.09,.27-.13,.73-.36,1.46-.72,2.19-1.06,.2-.09,.39-.19,.59-.28,.68-.32,1.37-.64,2.05-.95,.15-.07,.3-.14,.46-.21,.76-.35,1.52-.68,2.28-1.01,.36-.15,.71-.31,1.06-.46,.39-.17,.79-.34,1.18-.5,.44-.19,.88-.37,1.32-.55,.24-.1,.47-.19,.7-.29,12.25-4.99,22.97-7.94,26.79-8.93,7.55,9.51,10.86,21.75,9.12,33.81-.18,1.22-.41,2.42-.68,3.62-.03,.12-.05,.24-.08,.36-.11,.45-.23,.89-.35,1.33-.06,.21-.11,.42-.17,.62-.13,.44-.27,.88-.41,1.31-.07,.2-.12,.41-.19,.61-.01,.03-.02,.06-.03,.09h0c-6.84,20.14-27.09,32.53-48.16,29.49Zm118.67-41.02c-21.91-3.17-44.03-.41-64.32,7.98,.07-.3,.12-.6,.18-.9,.05-.24,.1-.49,.15-.73,.11-.6,.21-1.2,.3-1.81,.01-.08,.03-.15,.04-.23,.02-.14,.03-.29,.05-.43,.09-.69,.18-1.38,.24-2.07,.03-.33,.05-.67,.07-1,.04-.51,.08-1.01,.1-1.52,.02-.37,.02-.74,.02-1.11,0-.47,.02-.94,.01-1.41,0-.38-.02-.76-.03-1.14-.02-.46-.03-.91-.06-1.37-.02-.39-.06-.77-.09-1.15-.04-.45-.08-.9-.13-1.34-.04-.38-.09-.77-.14-1.15-.06-.44-.13-.89-.2-1.33-.06-.38-.13-.76-.2-1.14-.08-.44-.18-.89-.27-1.33-.08-.37-.16-.74-.25-1.11-.11-.45-.23-.89-.35-1.33-.1-.36-.19-.72-.3-1.07-.14-.46-.28-.91-.43-1.36-.11-.34-.21-.67-.33-1.01-.17-.49-.36-.97-.55-1.46-.11-.29-.22-.58-.33-.87-.28-.69-.58-1.37-.89-2.04-.07-.14-.13-.28-.2-.42-.33-.68-.66-1.36-1.02-2.03-.14-.27-.3-.53-.44-.79-.26-.47-.52-.93-.79-1.39-.18-.3-.37-.58-.55-.88-.26-.42-.52-.83-.8-1.24-.2-.3-.42-.6-.63-.9-.18-.26-.36-.53-.55-.79,.56-.15,1.12-.3,1.68-.44,.56-.14,1.12-.29,1.68-.42,1.03-.25,2.06-.48,3.09-.71,.46-.1,.92-.21,1.38-.31,1.47-.31,2.95-.61,4.43-.88,.33-.06,.66-.11,.98-.17,1.17-.21,2.33-.41,3.5-.59,.56-.09,1.12-.16,1.67-.24,.95-.14,1.89-.27,2.84-.39,.61-.08,1.22-.15,1.84-.22,.91-.1,1.82-.2,2.73-.29,.62-.06,1.24-.12,1.86-.17,.93-.08,1.87-.15,2.81-.22,.58-.04,1.17-.09,1.75-.12,1.11-.07,2.22-.11,3.33-.16,.41-.02,.81-.04,1.22-.05,1.49-.05,2.99-.07,4.48-.08,.49,0,.99,0,1.48,.01,1.03,0,2.06,.01,3.09,.04,.61,.01,1.21,.04,1.82,.06,.93,.03,1.86,.07,2.8,.12,.63,.03,1.26,.07,1.89,.11,.93,.06,1.86,.13,2.79,.2,.61,.05,1.22,.1,1.83,.15,1.01,.09,2.02,.2,3.04,.31,.52,.06,1.05,.11,1.57,.17,1.53,.18,3.06,.38,4.6,.6,1.74,.25,3.48,.54,5.21,.84,.24,.04,.47,.08,.71,.12,1.65,.3,3.28,.62,4.9,.96,.16,.03,.31,.07,.47,.1,3.84,11.64,6.27,23.69,7.26,35.89-3.95-.97-7.99-1.76-12.05-2.35Z"/></g><g id="g"/><g id="h"/><g id="i"/></svg>