<?xml version="1.0" encoding="UTF-8"?><svg xmlns="http://www.w3.org/2000/svg" xmlns:xlink="http://www.w3.org/1999/xlink" viewBox="0 0 256 256"><defs><style>.j{fill:url(#f);}.k{fill:#141918;}</style><linearGradient id="f" x1="47.23" y1="123.63" x2="214.04" y2="123.63" gradientTransform="matrix(1, 0, 0, 1, 0, 0)" gradientUnits="userSpaceOnUse"><stop offset="0" stop-color="#17e58f"/><stop offset=".5" stop-color="#17e5c3"/><stop offset="1" stop-color="#17d4e5"/></linearGradient></defs><g id="a"/><g id="b"/><g id="c"/><g id="d"/><g id="e"><rect class="k" x="-4.94" y="-4.94" width="265.88" height="265.88"/><path class="j" d="M207.41,121.54h0c-7.25-21.33-19.97-40.38-36.85-55.32,11.71-5.84,20.15-17.15,22.09-30.53,.09-.63,.16-1.26,.23-1.88,.12-1.08-.63-2.06-1.7-2.22-1.07-.16-2.08,.55-2.29,1.62-3.05,15.9-18,26.54-34.03,24.23-2.14-.31-4.24-.85-6.26-1.6-.03-.01-.05-.02-.08-.03-.78-.29-1.57-.62-2.36-1-.04-.02-.09-.04-.13-.06-.02,0-.05-.02-.07-.03h0c-2.3-.86-4.69-1.47-7.13-1.83-5.2-.75-10.34-.33-15.3,1.26-11.84,3.78-21.42,14.24-25.02,27.29-5.79,21.01-13.21,38.65-22.68,53.94-.79,1.28-6.47,7.54-8.4,9.63-4.38,4.16-7.39,10.46-8.93,18.71-.11,.57-.21,1.15-.29,1.74-.35,2.41-.47,4.86-.38,7.29-5.45,8.34-8.73,16.58-9.95,25.01-.78,5.4-.84,10.84-.17,16.18,.09,.69,.52,1.28,1.14,1.58,.27,.13,.57,.19,.86,.19,.38,0,.75-.11,1.08-.32,4.76-3.03,8.5-6.58,11.1-10.53,.22-.33,.51-.8,.82-1.29,.42-.68,.9-1.44,1.2-1.87,7.52-10.78,20.94-16.5,34.18-14.59,.42,.06,1.63,.29,2.71,.5,1.22,.23,2.37,.46,2.88,.53,1.92,.28,3.83,.41,5.72,.41,16.48,0,31.49-10.27,37.26-26.03,16.53-7.52,34.79-10.12,52.86-7.51,4.06,.59,8.09,1.43,11.97,2.51,.63,.18,1.3,.04,1.81-.37,.51-.41,.79-1.04,.75-1.69-.67-11.55-2.9-22.96-6.63-33.92Zm-5.02-2.06c-.19-.04-.39-.07-.59-.11-.76-.15-1.52-.29-2.29-.42-.32-.06-.63-.11-.95-.17-1.05-.18-2.1-.34-3.16-.5-1.37-.2-2.74-.38-4.11-.53-.74-.09-1.48-.15-2.22-.22-.63-.06-1.26-.14-1.88-.19-.57-.05-1.15-.08-1.72-.12-.79-.06-1.59-.13-2.38-.17-.51-.03-1.01-.04-1.51-.06-.86-.04-1.72-.08-2.58-.11-.5-.01-1-.01-1.5-.02-.86-.01-1.72-.03-2.58-.03-.47,0-.94,.02-1.41,.02-.89,.01-1.78,.02-2.66,.05-.43,.01-.86,.04-1.29,.06-.92,.04-1.85,.07-2.77,.13-.39,.02-.77,.06-1.16,.09-.97,.07-1.93,.13-2.89,.22-.36,.03-.72,.08-1.07,.11-.99,.1-1.98,.2-2.96,.32-.37,.05-.74,.1-1.11,.15-.97,.13-1.94,.25-2.91,.4-.37,.06-.74,.13-1.11,.19-.97,.16-1.94,.31-2.9,.49-.37,.07-.74,.15-1.11,.22-.96,.18-1.92,.37-2.88,.57-.4,.09-.8,.19-1.2,.27-.93,.21-1.85,.41-2.78,.64-.43,.1-.85,.22-1.27,.33-.89,.23-1.79,.45-2.68,.7-.49,.13-.97,.29-1.46,.43-.83,.24-1.66,.47-2.48,.73-.54,.17-1.09,.35-1.63,.53-.58,.19-1.17,.37-1.75,.57-6.13,1.79-15.99,5.04-26.01,9.91l.03-.06c2.22-4.82,3.73-9.95,4.5-15.26,.35-2.44,.89-7.27,1.33-11.16,.28-2.52,.52-4.7,.62-5.38,.18-1.21,.4-2.41,.69-3.59v-.05c.14-.55,.29-1.09,.44-1.63,.06-.2,.12-.4,.19-.6,.11-.36,.22-.72,.34-1.07,.01-.04,.03-.08,.04-.12,13.8-10.73,29.11-19.17,45.53-25.09,.4-.07,.8-.14,1.21-.22h0c2.11-.42,4.16-1,6.14-1.72,16.17,13.87,28.52,31.59,35.93,51.48Zm-116.82,35.52s.03,.04,.04,.06c.2,.26,.38,.53,.55,.81,.02,.03,.03,.05,.05,.08,.16,.28,.31,.57,.43,.87,.02,.05,.04,.1,.06,.15,.12,.29,.22,.6,.31,.91,.02,.06,.03,.11,.04,.17,.08,.31,.15,.63,.19,.96,0,.04,0,.09,.01,.13,.04,.35,.07,.69,.07,1.05,0,4.66-3.79,8.45-8.45,8.45-.24,0-.47-.01-.71-.03-.08,0-.15-.02-.23-.03-.16-.02-.31-.04-.46-.06-.09-.02-.18-.04-.27-.05-.14-.03-.27-.06-.41-.09-.09-.02-.19-.05-.28-.08-.13-.04-.26-.08-.38-.12-.09-.03-.18-.07-.28-.1-.12-.05-.24-.1-.36-.15-.09-.04-.18-.08-.27-.12-.12-.06-.23-.12-.35-.18-.09-.05-.17-.09-.26-.14-.11-.07-.22-.14-.34-.21-.08-.05-.16-.1-.24-.16-.11-.08-.22-.16-.33-.24-.07-.05-.14-.11-.21-.16-.12-.1-.23-.2-.34-.3-.06-.05-.11-.1-.17-.15-.16-.15-.31-.31-.46-.47v-.02c-.16-.17-.31-.35-.44-.53-.04-.06-.08-.12-.13-.18-.09-.12-.18-.25-.26-.38-.05-.08-.09-.15-.14-.23-.07-.12-.14-.24-.2-.36-.04-.08-.09-.17-.13-.26-.06-.12-.11-.24-.17-.37-.04-.09-.07-.19-.11-.28-.03-.07-.05-.14-.07-.2,.23-.22,.46-.44,.7-.67,.04-.04,.09-.08,.13-.13,.04-.04,.08-.08,.12-.12,.46-.43,.94-.86,1.43-1.31l.04-.03c.5-.44,1.01-.89,1.54-1.35l.1-.09c1.05-.9,2.16-1.82,3.34-2.76,.12-.1,.24-.19,.37-.29,.54-.43,1.08-.86,1.64-1.3,.03-.02,.05-.04,.08-.06,.28-.22,.57-.44,.86-.66,.38-.29,.76-.58,1.15-.88l.08-.06c.19-.14,.39-.29,.58-.43,.02,0,.03,.02,.05,.03,.28,.16,.55,.35,.81,.54,.05,.03,.09,.07,.14,.11,.25,.2,.5,.41,.72,.63,.04,.04,.07,.07,.11,.11,.23,.24,.45,.48,.65,.74Zm-22.68,17.44h0c.07-.11,.15-.21,.22-.31,.37-.53,.76-1.05,1.15-1.58,.08-.11,.16-.22,.24-.32,.31-.42,.64-.83,.96-1.25,.13-.17,.26-.34,.39-.5,.17-.22,.36-.44,.54-.66,.14-.17,.27-.33,.41-.5,.04-.05,.09-.1,.13-.15,.29-.34,.59-.68,.91-1.03l.05-.05c.1,.18,.2,.36,.31,.53,.03,.05,.06,.11,.09,.16,.17,.27,.35,.54,.54,.79,.05,.07,.11,.14,.16,.2,.14,.19,.29,.37,.45,.55,.07,.08,.14,.16,.22,.24,.15,.16,.3,.32,.46,.48,.07,.07,.14,.15,.22,.22,.2,.19,.41,.37,.62,.55,.03,.03,.07,.06,.1,.09,.25,.2,.5,.39,.77,.57,.07,.05,.15,.1,.23,.15,.19,.13,.39,.25,.59,.37,.09,.05,.19,.11,.29,.16,.2,.11,.4,.21,.6,.31,.09,.04,.18,.09,.27,.13,.27,.12,.54,.23,.82,.34,.02,0,.05,.02,.07,.03,.3,.11,.61,.2,.92,.29,.09,.03,.19,.05,.28,.07,.22,.06,.45,.11,.68,.15,.11,.02,.22,.04,.33,.06,.23,.04,.46,.07,.69,.09,.1,.01,.2,.02,.31,.03,.33,.03,.66,.04,1,.04,6.88,0,12.49-5.6,12.49-12.49,0-.44-.03-.87-.08-1.3-.01-.1-.02-.2-.03-.3-.05-.42-.12-.84-.22-1.25-.01-.05-.03-.09-.04-.14-.09-.37-.2-.74-.33-1.1-.03-.09-.06-.18-.09-.26-.14-.39-.3-.77-.48-1.13-.03-.07-.07-.13-.1-.2-.17-.33-.35-.64-.54-.95-.04-.07-.08-.14-.13-.21-.22-.34-.47-.67-.72-.99-.05-.07-.11-.13-.17-.2-.24-.28-.49-.56-.75-.82-.04-.04-.09-.09-.13-.13-.3-.29-.61-.56-.94-.82-.03-.02-.06-.05-.09-.08,.08-.06,.16-.12,.25-.18,.18-.13,.37-.26,.55-.39,.48-.34,.97-.69,1.46-1.03,.39-.28,.79-.56,1.19-.83,.25-.17,.5-.35,.75-.52,1.18-.82,2.4-1.65,3.64-2.49,.62-.42,1.22-.81,1.79-1.17,.14-.09,.29-.18,.44-.27,.44-.28,.87-.55,1.3-.8,.35-.21,.69-.41,1.03-.61,.21-.13,.43-.26,.64-.38,.06-.03,.12-.07,.18-.1,1.79,4.22,2.39,8.82,1.72,13.43-.97,6.68-4.48,12.59-9.89,16.64-5.41,4.04-12.07,5.74-18.75,4.77-3.59-.52-7.03-1.81-10.06-3.76,.03-.05,.06-.09,.1-.14Zm54.37-85.16c6.45-10.37,17.64-17.04,30.11-17.01-10.59,4.62-20.66,10.31-30.11,17.01Zm-55.07,78.75c.08-.52,.16-1.03,.26-1.56,1.39-7.45,4.02-13.03,7.83-16.63,.07-.07,7.74-8.37,8.97-10.35,9.67-15.62,17.24-33.6,23.14-54.99,3.24-11.75,11.81-21.15,22.36-24.52,2.97-.95,6.01-1.42,9.1-1.42,1.46,0,2.92,.11,4.39,.32,2.13,.31,4.22,.84,6.23,1.59,.86,.41,1.74,.78,2.6,1.1,.02,0,.04,.02,.07,.03,2.3,.86,4.69,1.47,7.13,1.82,8.43,1.22,16.59-.72,23.27-4.95-3.55,3.35-7.78,5.99-12.47,7.71-.25,.09-.5,.19-.76,.28-.62,.21-1.25,.41-1.88,.59-.23,.07-.46,.13-.69,.19-.72,.19-1.45,.37-2.19,.51h-.02c-2.77,.55-5.58,.78-8.38,.67-.85-.08-1.64-.13-2.41-.16-17.44-.68-32.85,10.43-38.75,26.81,0,.02-.02,.04-.03,.06-.04,.11-.07,.22-.11,.32-.15,.42-.28,.83-.42,1.26-.07,.24-.15,.47-.22,.71-.14,.46-.26,.93-.39,1.41-.05,.18-.1,.36-.14,.55-.16,.64-.3,1.28-.43,1.94,0,.02,0,.04-.01,.06-.14,.71-.26,1.42-.37,2.14-.11,.75-.34,2.84-.64,5.5-.4,3.57-.89,7.95-1.23,10.47-.03,.2-.06,.4-.08,.58-.71,4.93-2.11,9.69-4.17,14.16-.36,.8-.75,1.59-1.16,2.37-.04,.08-.08,.16-.13,.25-.39,.74-.81,1.47-1.24,2.19-.04,.07-.08,.13-.12,.2-2.39,1.33-4.74,2.76-7,4.29-.51,.34-1,.68-1.5,1.02-.23,.16-.47,.32-.7,.48-.42,.28-.82,.57-1.23,.85-.43,.3-.85,.59-1.27,.88-.23,.16-.46,.32-.68,.48-.1,.07-.19,.14-.29,.21-.76,.54-1.51,1.07-2.24,1.59-.25,.18-.49,.36-.74,.54-.44,.32-.87,.63-1.3,.94-.17,.12-.35,.25-.52,.38h0l-.46,.35c-.52,.39-1.03,.77-1.54,1.15-.05,.04-.1,.08-.15,.13-.95,.72-1.86,1.43-2.75,2.13l-.04,.03-.08,.07c-.37,.29-.73,.58-1.09,.87-.6,.48-1.2,.96-1.77,1.44-.19,.16-.37,.31-.55,.47-.13,.11-.26,.22-.39,.33-.31,.27-.63,.53-.93,.8-.23,.2-.45,.39-.67,.59-.23,.2-.46,.4-.68,.6-.26,.24-.52,.47-.77,.7-.65,.59-1.28,1.18-1.88,1.76-.22,.22-.43,.43-.65,.64v.02h-.03l-.17,.18s-.09,.08-.13,.12c-.74,.75-1.42,1.47-2.05,2.16l-.03,.03c-.39,.44-.77,.87-1.13,1.28h0c-.36,.43-.71,.85-1.04,1.27-.2,.25-.39,.5-.58,.75,.03-.23,.06-.47,.09-.7Zm42.05,18.11c-.41-.06-1.63-.29-2.7-.5-1.23-.24-2.39-.46-2.89-.53-14.74-2.13-29.68,4.26-38.07,16.28-.36,.51-.84,1.29-1.31,2.04-.29,.46-.56,.9-.77,1.21-1.76,2.69-4.15,5.17-7.12,7.42-.25-3.89-.09-7.82,.47-11.73,1.09-7.51,3.95-14.9,8.69-22.4,3.53,2.29,7.54,3.8,11.72,4.41,1.42,.21,2.84,.31,4.25,.31,6.28,0,12.37-2.01,17.49-5.84,6.28-4.69,10.35-11.54,11.47-19.29h0c.79-5.48,.03-10.96-2.18-15.96,.86-.46,1.73-.91,2.6-1.34,.07-.04,.14-.07,.22-.11,.59-.29,1.18-.58,1.77-.86,.16-.08,.32-.15,.48-.23,.55-.26,1.1-.52,1.65-.77,.12-.06,.25-.11,.37-.17,.62-.28,1.23-.55,1.84-.82,.29-.13,.57-.25,.86-.37,.32-.14,.63-.27,.95-.4,.36-.15,.71-.3,1.07-.45,.19-.08,.38-.16,.57-.23,9.9-4.03,18.55-6.41,21.64-7.21,6.09,7.68,8.77,17.56,7.37,27.31-.14,.98-.33,1.96-.55,2.92-.02,.1-.04,.19-.06,.29-.09,.36-.19,.72-.28,1.08-.05,.17-.09,.34-.13,.5-.1,.36-.22,.71-.33,1.06-.05,.16-.1,.33-.16,.49,0,.02-.02,.05-.02,.07h0c-5.52,16.26-21.88,26.27-38.9,23.81Zm95.84-33.13c-17.69-2.56-35.56-.33-51.94,6.44,.05-.24,.1-.48,.15-.73,.04-.2,.08-.39,.12-.59,.09-.49,.17-.97,.25-1.46,0-.06,.02-.12,.03-.19,.02-.12,.03-.23,.04-.35,.08-.56,.14-1.11,.2-1.67,.03-.27,.04-.54,.06-.81,.03-.41,.06-.82,.08-1.22,.01-.3,.01-.6,.02-.89,0-.38,.01-.76,.01-1.14,0-.31-.02-.61-.03-.92-.01-.37-.03-.74-.05-1.1-.02-.31-.05-.62-.07-.93-.03-.36-.06-.72-.1-1.09-.03-.31-.07-.62-.12-.93-.05-.36-.1-.72-.16-1.07-.05-.31-.1-.61-.16-.92-.07-.36-.14-.72-.22-1.07-.07-.3-.13-.6-.2-.9-.09-.36-.18-.72-.28-1.08-.08-.29-.15-.58-.24-.87-.11-.37-.23-.73-.35-1.1-.09-.27-.17-.54-.27-.81-.14-.4-.29-.79-.44-1.18-.09-.23-.17-.47-.27-.7-.23-.56-.47-1.1-.72-1.65-.05-.11-.11-.23-.16-.34-.26-.55-.54-1.1-.82-1.64-.11-.21-.24-.42-.36-.64-.21-.38-.42-.75-.64-1.12-.14-.24-.3-.47-.44-.71-.21-.34-.42-.67-.65-1.01-.16-.24-.34-.48-.51-.72-.15-.21-.29-.43-.44-.64,.45-.12,.91-.24,1.36-.35,.45-.11,.91-.23,1.36-.34,.83-.2,1.66-.39,2.49-.57,.37-.08,.74-.17,1.12-.25,1.19-.25,2.38-.49,3.58-.71,.26-.05,.53-.09,.79-.14,.94-.17,1.88-.33,2.83-.47,.45-.07,.9-.13,1.35-.2,.76-.11,1.53-.22,2.3-.31,.49-.06,.99-.12,1.48-.18,.73-.08,1.47-.16,2.2-.24,.5-.05,1-.1,1.5-.14,.75-.07,1.51-.12,2.27-.17,.47-.03,.94-.07,1.41-.1,.89-.05,1.79-.09,2.69-.13,.33-.01,.66-.03,.99-.04,1.21-.04,2.41-.06,3.62-.06,.4,0,.8,0,1.2,0,.83,0,1.67,.01,2.5,.03,.49,.01,.98,.03,1.47,.05,.75,.03,1.5,.06,2.26,.09,.51,.03,1.01,.06,1.52,.09,.75,.05,1.5,.1,2.26,.16,.49,.04,.98,.08,1.48,.12,.82,.07,1.63,.16,2.45,.25,.42,.05,.84,.09,1.27,.14,1.24,.15,2.47,.3,3.71,.48,1.41,.2,2.81,.43,4.21,.68,.19,.03,.38,.07,.57,.1,1.33,.24,2.65,.5,3.96,.78,.13,.03,.25,.05,.38,.08,3.1,9.4,5.07,19.13,5.86,28.99-3.19-.79-6.45-1.42-9.73-1.9Z"/></g><g id="g"/><g id="h"/><g id="i"/></svg>