<svg xmlns="http://www.w3.org/2000/svg" xmlns:xlink="http://www.w3.org/1999/xlink" viewBox="0 0 256 256"><defs><style>.cls-1{fill:url(#Безымянный_градиент_25);}.cls-2{fill:url(#Безымянный_градиент_25-2);}.cls-3{fill:url(#Безымянный_градиент_25-3);}.cls-4{fill:url(#Безымянный_градиент_25-4);}.cls-5{fill:url(#Безымянный_градиент_25-5);}.cls-6{fill:url(#Безымянный_градиент_25-6);}</style><linearGradient id="Безымянный_градиент_25" x1="63.36" y1="165.68" x2="73.96" y2="176.28" gradientUnits="userSpaceOnUse"><stop offset="0" stop-color="#17e58f"/><stop offset="0.5" stop-color="#17e5c3"/><stop offset="1" stop-color="#17d4e5"/></linearGradient><linearGradient id="Безымянный_градиент_25-2" x1="84.09" y1="75.58" x2="120.29" y2="111.78" xlink:href="#Безымянный_градиент_25"/><linearGradient id="Безымянный_градиент_25-3" x1="66.83" y1="162.31" x2="85.14" y2="180.62" xlink:href="#Безымянный_градиент_25"/><linearGradient id="Безымянный_градиент_25-4" x1="69.48" y1="162.76" x2="114.17" y2="207.45" xlink:href="#Безымянный_градиент_25"/><linearGradient id="Безымянный_градиент_25-5" x1="119.84" y1="77.89" x2="189.96" y2="148" xlink:href="#Безымянный_градиент_25"/><linearGradient id="Безымянный_градиент_25-6" x1="155.85" y1="113.74" x2="215.33" y2="173.22" xlink:href="#Безымянный_градиент_25"/></defs><g id="Gradient"><path class="cls-1" d="M56.92,173l.21.45c0,.11.1.21.16.32s.16.3.25.45l.17.29c.1.16.21.31.32.46a1.88,1.88,0,0,0,.16.23,7.93,7.93,0,0,0,.53.65l0,0c.18.2.36.4.56.59l.21.18a3.7,3.7,0,0,0,.42.37l.26.21.41.3a2.9,2.9,0,0,0,.29.19l.42.26.31.18.43.22.33.15.45.18.35.13.47.15.34.1.51.11.33.07.58.07.28,0q.44,0,.87,0A10.47,10.47,0,0,0,77,168.89a11,11,0,0,0-.08-1.29c0-.06,0-.11,0-.17a11.93,11.93,0,0,0-.24-1.19l-.06-.21a9.23,9.23,0,0,0-.38-1.12l-.08-.18a11,11,0,0,0-.54-1.09l-.06-.1a9.77,9.77,0,0,0-.68-1l0-.07a10.06,10.06,0,0,0-.81-.92l-.13-.13a9.78,9.78,0,0,0-.9-.79l-.17-.13a9.73,9.73,0,0,0-1-.66l-.06,0-.71.54-.1.07-1.43,1.09-1.06.81a.39.39,0,0,1-.1.08l-2,1.61-.46.36q-2.18,1.75-4.13,3.42l-.13.11c-.65.57-1.29,1.12-1.9,1.67l-.05,0-1.77,1.62-.15.14-.17.16-.86.83a2.5,2.5,0,0,0,.09.25C56.83,172.72,56.87,172.83,56.92,173Z"/><path class="cls-2" d="M47.77,174.5h0c.44-.52.91-1.05,1.4-1.59l0,0c.78-.87,1.61-1.75,2.53-2.68l.16-.15.22-.21s0,0,0,0l0,0c.27-.25.54-.52.8-.79.74-.72,1.53-1.44,2.33-2.18l1-.87.84-.75.83-.72,1.15-1c.16-.14.32-.28.49-.41l.68-.59c.72-.59,1.45-1.19,2.2-1.78.44-.36.88-.72,1.34-1.08l.1-.08.05,0q1.65-1.29,3.4-2.63l.19-.16c.64-.46,1.27-.94,1.91-1.42l.57-.43h0l.65-.47,1.6-1.17.92-.66,2.77-2,.36-.26.84-.59,1.57-1.09,1.53-1,.87-.59L83,145.76c2.81-1.89,5.72-3.66,8.67-5.31l.15-.25c.53-.89,1-1.8,1.53-2.71a3,3,0,0,1,.16-.31c.5-1,1-2,1.43-2.93a63.75,63.75,0,0,0,5.17-17.54c0-.22.06-.47.1-.72.42-3.12,1-8.54,1.52-13,.36-3.29.65-5.89.79-6.81s.28-1.78.45-2.66a.64.64,0,0,0,0-.07c.16-.8.34-1.6.53-2.39l.18-.68q.22-.89.48-1.74c.08-.3.18-.59.27-.88.16-.52.33-1,.51-1.55,0-.14.09-.27.14-.4a.15.15,0,0,1,0-.07c7.32-20.29,26.4-34,48-33.2.94,0,1.92.1,3,.2A44.15,44.15,0,0,0,166.42,52h0c.92-.18,1.82-.4,2.71-.63l.86-.24c.78-.22,1.56-.46,2.33-.72l.94-.35a45.22,45.22,0,0,0,15.44-9.55A42.34,42.34,0,0,1,159.9,46.6a43.11,43.11,0,0,1-8.82-2.26l-.08,0c-1.07-.39-2.16-.85-3.23-1.36a37.78,37.78,0,0,0-7.71-2,38.49,38.49,0,0,0-5.44-.39,37,37,0,0,0-11.27,1.76C110.28,46.51,99.68,58.15,95.66,72.7,88.36,99.18,79,121.46,67,140.79c-1.52,2.46-11,12.73-11.11,12.82-4.72,4.45-8,11.36-9.7,20.59-.13.65-.23,1.28-.32,1.93l-.12.86.72-.92C46.89,175.55,47.32,175,47.77,174.5Z"/><path class="cls-3" d="M55.7,179.86c-.2-.19-.39-.39-.58-.6a2.55,2.55,0,0,1-.26-.3c-.2-.22-.38-.44-.56-.68-.06-.08-.13-.16-.19-.25-.24-.32-.46-.64-.67-1a1.32,1.32,0,0,1-.12-.2c-.13-.21-.26-.43-.38-.65l-.06.06c-.39.43-.76.85-1.12,1.27l-.16.19c-.18.2-.34.41-.51.61l-.67.83-.48.62c-.4.52-.81,1-1.19,1.55l-.3.4c-.49.65-1,1.3-1.43,2l-.27.39h0l-.12.17a31.3,31.3,0,0,0,45.78-38.48l-.22.13-.8.47-1.27.76c-.53.31-1.07.65-1.61,1-.18.11-.37.22-.54.34-.72.45-1.45.93-2.22,1.45-1.55,1-3,2.06-4.51,3.08l-.94.65-1.47,1L77,156l-.68.49-.3.22.11.09c.4.32.79.66,1.16,1,.06,0,.11.11.16.16.33.33.64.67.94,1l.2.24q.48.6.9,1.23a2.26,2.26,0,0,0,.16.26c.24.38.46.78.66,1.18l.13.24q.33.69.6,1.41c0,.1.07.21.11.32.15.45.29.9.4,1.37a.84.84,0,0,1,.05.17c.12.51.2,1,.27,1.54,0,.13,0,.25,0,.37a14.35,14.35,0,0,1,.09,1.61,15.47,15.47,0,0,1-15.46,15.46c-.41,0-.82,0-1.23,0l-.38,0-.85-.11-.41-.08q-.42-.07-.84-.18l-.35-.09a11.58,11.58,0,0,1-1.14-.36l-.09,0c-.35-.13-.68-.27-1-.42l-.34-.16-.74-.38-.35-.2c-.25-.14-.49-.3-.73-.45l-.28-.19c-.33-.22-.64-.45-1-.7l-.12-.11c-.27-.22-.52-.44-.77-.67Z"/><path class="cls-4" d="M112.12,136.24l-.71.29-1.32.55-1.18.5-1.06.46c-.76.33-1.52.66-2.28,1l-.46.21-2,1-.59.28-2.19,1.06-.26.14c-1.08.53-2.15,1.09-3.22,1.65a36.08,36.08,0,0,1,2.7,19.76h0a36.34,36.34,0,0,1-35.87,31.13,37.44,37.44,0,0,1-5.26-.38,36.36,36.36,0,0,1-14.52-5.46c-5.87,9.29-9.42,18.44-10.76,27.74a70,70,0,0,0-.59,14.52,37.19,37.19,0,0,0,8.82-9.19c.25-.38.59-.92,1-1.5.58-.93,1.18-1.9,1.62-2.53A49.23,49.23,0,0,1,91,197.28c.63.09,2.07.37,3.59.66,1.32.25,2.82.54,3.33.61a44.18,44.18,0,0,0,48.17-29.48h0l0-.09c.07-.2.13-.41.19-.61.14-.44.29-.87.41-1.32.06-.2.11-.41.17-.62.12-.44.24-.88.35-1.33,0-.12,0-.24.08-.36.27-1.19.51-2.4.68-3.62a44.2,44.2,0,0,0-9.12-33.81A220.86,220.86,0,0,0,112.12,136.24Z"/><path class="cls-5" d="M175,54.73a49,49,0,0,1-7.6,2.13h0l-1.5.28a204.59,204.59,0,0,0-56.37,31.07l0,.14c-.15.44-.28.88-.42,1.33-.07.24-.16.49-.23.74-.19.67-.37,1.34-.53,2,0,0,0,0,0,.06-.35,1.45-.63,2.94-.85,4.44-.12.84-.42,3.54-.77,6.66-.54,4.82-1.21,10.81-1.64,13.83a68.78,68.78,0,0,1-5.57,18.89l0,.07a212.23,212.23,0,0,1,32.21-12.27l2.17-.7c.67-.22,1.34-.45,2-.65,1-.32,2-.61,3.08-.9l1.8-.53c1.1-.31,2.21-.58,3.32-.87l1.58-.41c1.14-.28,2.29-.53,3.44-.79l1.48-.34c1.18-.25,2.37-.48,3.56-.7l1.38-.28c1.19-.22,2.39-.41,3.59-.6l1.37-.23c1.2-.18,2.4-.34,3.6-.49.46-.06.92-.14,1.38-.19,1.22-.15,2.44-.27,3.66-.39l1.33-.15c1.2-.11,2.39-.19,3.59-.27l1.43-.11c1.14-.07,2.28-.11,3.43-.16l1.6-.08c1.09,0,2.19,0,3.29,0l1.75,0c1.06,0,2.13,0,3.19,0,.62,0,1.24,0,1.86,0,1.06,0,2.13.09,3.19.13l1.88.08,2.95.21c.7.06,1.41.09,2.12.16s1.56.15,2.34.23,1.83.17,2.75.28c1.69.19,3.39.41,5.09.66,1.3.19,2.61.4,3.91.61l1.18.21,2.83.52.73.13A155.53,155.53,0,0,0,175,54.73Z"/><path class="cls-6" d="M221.41,124l-.47-.1c-1.62-.34-3.26-.67-4.9-1l-.71-.12c-1.73-.3-3.47-.59-5.22-.84q-2.3-.33-4.59-.6l-1.57-.17c-1-.11-2-.21-3-.3l-1.82-.15c-.94-.08-1.87-.14-2.8-.2l-1.89-.11q-1.4-.08-2.79-.12l-1.82-.06-3.09,0h-1.49c-1.49,0-3,0-4.48.08l-1.22,0c-1.11,0-2.22.09-3.33.16l-1.75.12c-.93.06-1.87.13-2.8.21l-1.86.18c-.91.09-1.82.18-2.73.29l-1.83.22q-1.43.18-2.85.39l-1.67.24c-1.17.18-2.34.38-3.5.59l-1,.17c-1.48.27-2.95.56-4.42.88-.47.09-.93.2-1.39.31-1,.22-2.06.46-3.09.71l-1.68.42-1.68.44c.19.25.36.52.55.78l.62.9c.28.41.54.83.8,1.25s.38.58.55.87c.28.46.54.93.8,1.39.14.27.3.53.44.79q.54,1,1,2l.2.42c.31.67.61,1.35.89,2,.12.29.22.58.34.87.18.49.37,1,.55,1.46l.33,1c.15.45.29.9.43,1.36l.3,1.07c.12.44.24.89.34,1.33s.17.74.25,1.11.19.89.27,1.33.14.76.2,1.14.14.88.2,1.33.1.76.15,1.15.09.89.13,1.34l.09,1.15.06,1.37,0,1.14c0,.47,0,.94,0,1.41s0,.74,0,1.11-.06,1-.1,1.51c0,.34,0,.67-.07,1q-.09,1-.24,2.07c0,.14,0,.28-.05.43s0,.15,0,.23c-.09.6-.19,1.21-.3,1.81l-.15.73-.18.9a122.26,122.26,0,0,1,64.32-8c4.05.58,8.09,1.37,12,2.34A153.91,153.91,0,0,0,221.41,124Z"/></g></svg>