<?xml version="1.0" encoding="UTF-8"?><svg xmlns="http://www.w3.org/2000/svg" xmlns:xlink="http://www.w3.org/1999/xlink" viewBox="0 0 1500 480"><defs><style>.q{fill:#fff;}.r{fill:url(#l);}.s{fill:url(#m);}.t{opacity:.65;}.u{fill:url(#f);}.v{fill:url(#p);}.w{fill:url(#g);}.x{fill:url(#i);}.y{fill:url(#h);}.a`{fill:url(#e);}.aa{fill:url(#n);}.ab{fill:url(#j);}.ac{fill:url(#o);}.ad{fill:url(#k);}</style><linearGradient id="e" x1="881.18" y1="306.04" x2="940.41" y2="306.04" gradientTransform="matrix(1, 0, 0, 1, 0, 0)" gradientUnits="userSpaceOnUse"><stop offset="0" stop-color="#17e58f"/><stop offset=".5" stop-color="#17e5c3"/><stop offset="1" stop-color="#17d4e5"/></linearGradient><linearGradient id="f" x1="950.18" x2="1001.3" xlink:href="#e"/><linearGradient id="g" x1="1011.06" x2="1022.64" xlink:href="#e"/><linearGradient id="h" x1="1032.4" x2="1091.09" xlink:href="#e"/><linearGradient id="i" x1="1100.86" x2="1158.72" xlink:href="#e"/><linearGradient id="j" x1="1168.49" x2="1223.47" xlink:href="#e"/><linearGradient id="k" x1="284.81" y1="290.37" x2="297.63" y2="303.19" xlink:href="#e"/><linearGradient id="l" x1="309.88" y1="181.39" x2="353.66" y2="225.18" xlink:href="#e"/><linearGradient id="m" x1="289" y1="286.29" x2="311.14" y2="308.44" xlink:href="#e"/><linearGradient id="n" x1="292.21" y1="286.84" x2="346.26" y2="340.89" xlink:href="#e"/><linearGradient id="o" x1="353.12" y1="184.18" x2="437.93" y2="268.99" xlink:href="#e"/><linearGradient id="p" x1="396.67" y1="227.55" x2="468.61" y2="299.49" xlink:href="#e"/></defs><g id="a"/><g id="b"/><g id="c"><g class="t"/></g><g id="d"><g><g><g><path class="a`" d="M915.9,282.89c-6.41,0-11.88,2.26-16.41,6.79-4.49,4.53-6.74,9.98-6.74,16.36s2.25,11.87,6.74,16.36c4.52,4.53,9.99,6.79,16.41,6.79s11.83-2.26,16.36-6.79l8.15,8.2c-6.77,6.77-14.94,10.16-24.51,10.16s-17.79-3.38-24.56-10.16c-6.77-6.77-10.16-14.96-10.16-24.56s3.38-17.79,10.16-24.56,14.96-10.16,24.56-10.16,17.74,3.39,24.51,10.16l-8.15,8.2c-4.53-4.52-9.98-6.79-16.36-6.79Z"/><path class="u" d="M961.75,271.32v57.86h39.55l-4.83,11.57h-46.29v-69.43h11.57Z"/><path class="w" d="M1011.06,271.32h11.57v69.43h-11.57v-69.43Z"/><path class="y" d="M1091.09,271.32l-3.42,11.57h-36.77v17.38h22.56l-3.42,11.57h-19.14v17.33h40.19l-3.42,11.57h-48.34v-57.86h-6.93l4.83-11.57h53.86Z"/><path class="x" d="M1158.72,271.32v69.43h-10.84l-35.45-48.73v48.73h-11.57v-69.43h10.84l35.45,48.73v-37.16h-6.93l4.79-11.57h13.72Z"/><path class="ab" d="M1223.47,271.32v11.57h-21.73v57.86h-11.57v-57.86h-21.68v-11.57h54.98Z"/></g><g><path class="q" d="M513.06,169.2h-9.01l6.28-15.04h40.37c8.8,0,16.33,3.13,22.6,9.39,6.22,6.22,9.33,13.75,9.33,22.6,0,6.69-1.93,12.78-5.78,18.28-3.72,5.38-8.63,9.23-14.73,11.55l41.89,53.19-24.95-7.36-34.47-43.73h-16.5v26.34h-15.04v-75.22Zm15.04,33.83h22.6c4.65,0,8.63-1.65,11.93-4.95s4.95-7.28,4.95-11.93-1.65-8.7-4.95-12-7.28-4.95-11.93-4.95h-22.6v33.83Z"/><path class="q" d="M669.98,167.55c-8.8-8.84-19.42-13.27-31.87-13.27s-23.08,4.42-31.93,13.27-13.2,19.42-13.2,31.87,4.4,23.08,13.2,31.93c8.84,8.8,19.49,13.2,31.93,13.2s23.06-4.4,31.87-13.2c8.84-8.84,13.27-19.49,13.27-31.93s-4.42-23.06-13.27-31.87Zm-10.62,53.15c-5.87,5.87-12.95,8.8-21.24,8.8s-15.39-2.93-21.29-8.8c-5.87-5.9-8.8-12.99-8.8-21.29s2.93-15.38,8.8-21.24c5.9-5.9,12.99-8.84,21.29-8.84s15.38,2.95,21.24,8.84c5.9,5.87,8.84,12.95,8.84,21.24s-2.95,15.39-8.84,21.29Z"/><path class="q" d="M741.07,169.33c-8.34,0-15.45,2.94-21.33,8.82-5.84,5.88-8.76,12.97-8.76,21.26s2.92,15.42,8.76,21.26c5.88,5.88,12.99,8.82,21.33,8.82s15.38-2.94,21.26-8.82l10.6,10.66c-8.8,8.8-19.42,13.2-31.87,13.2s-23.13-4.4-31.93-13.2c-8.8-8.8-13.2-19.44-13.2-31.93s4.4-23.13,13.2-31.93,19.44-13.2,31.93-13.2,23.06,4.4,31.87,13.2l-10.6,10.66c-5.88-5.88-12.97-8.82-21.26-8.82Z"/><path class="q" d="M860.09,154.22l-38.85,42.53,56.62,72.24-24.88-7.36-42.02-53.64-10.28,11.3v25.2h-15.04v-90.26h15.04v42.72l39.04-42.72h20.38Z"/><path class="q" d="M949.21,154.28v90.26h-14.09l-46.08-63.35v63.35h-15.04v-90.26h14.09l46.08,63.35v-48.31h-9.01l6.22-15.04h17.84Z"/><path class="q" d="M1001.01,154.28c12.44,0,23.08,4.42,31.93,13.27,8.8,8.8,13.2,19.42,13.2,31.87s-4.4,23.08-13.2,31.93c-8.84,8.8-19.49,13.2-31.93,13.2h-30.09v-75.22h-9.01l6.28-15.04h32.82Zm0,75.22c8.29,0,15.38-2.94,21.26-8.82s8.82-12.97,8.82-21.26-2.94-15.38-8.82-21.26c-5.88-5.88-12.97-8.82-21.26-8.82h-15.04v60.18h15.04Z"/><path class="q" d="M1058.84,154.28h15.04v90.26h-15.04v-90.26Z"/><path class="q" d="M1131.71,169.33c-8.34,0-15.45,2.94-21.33,8.82-5.84,5.88-8.76,12.97-8.76,21.26s2.92,15.42,8.76,21.26c5.88,5.88,12.99,8.82,21.33,8.82s15.38-2.94,21.26-8.82l10.6,10.66c-8.8,8.8-19.42,13.2-31.87,13.2s-23.13-4.4-31.93-13.2c-8.8-8.8-13.2-19.44-13.2-31.93s4.4-23.13,13.2-31.93c8.8-8.8,19.44-13.2,31.93-13.2s23.06,4.4,31.87,13.2l-10.6,10.66c-5.88-5.88-12.97-8.82-21.26-8.82Z"/><path class="q" d="M1252.57,154.28l-4.44,15.04h-47.8v22.6h29.33l-4.44,15.04h-24.88v22.53h52.24l-4.44,15.04h-62.84v-75.22h-9.01l6.28-15.04h70.01Z"/></g></g><g><path class="ad" d="M277.01,299.16c.08,.19,.16,.37,.25,.55,.06,.13,.12,.26,.19,.39,.1,.18,.2,.36,.31,.54,.07,.12,.13,.23,.2,.35,.12,.19,.25,.38,.39,.57,.06,.09,.12,.18,.19,.27,.2,.27,.42,.54,.64,.79l.02,.02c.22,.25,.45,.48,.68,.71,.08,.08,.17,.15,.25,.23,.17,.15,.33,.3,.51,.45,.1,.08,.21,.16,.32,.24,.16,.13,.33,.25,.49,.37,.12,.08,.24,.16,.36,.23,.17,.11,.33,.21,.5,.31,.13,.07,.25,.14,.38,.21,.17,.09,.34,.18,.52,.27,.13,.06,.27,.13,.4,.18,.18,.08,.36,.15,.54,.22,.14,.05,.27,.1,.41,.15,.19,.07,.38,.12,.57,.18,.14,.04,.28,.08,.42,.12,.2,.05,.41,.09,.61,.14,.13,.03,.27,.06,.4,.08,.23,.04,.46,.07,.69,.09,.11,.01,.23,.03,.34,.04,.35,.03,.7,.05,1.06,.05,6.98,0,12.65-5.68,12.65-12.65,0-.53-.04-1.05-.1-1.57,0-.07-.01-.13-.02-.2-.07-.49-.17-.97-.29-1.44-.02-.08-.04-.17-.07-.25-.13-.46-.29-.92-.47-1.36-.03-.08-.06-.15-.1-.22-.19-.45-.41-.89-.65-1.31-.02-.04-.05-.08-.08-.12-.25-.42-.52-.83-.82-1.22-.02-.03-.04-.06-.06-.08-.3-.39-.63-.76-.98-1.11-.05-.05-.11-.11-.16-.16-.34-.34-.71-.65-1.09-.95-.07-.05-.14-.11-.21-.16-.39-.29-.79-.56-1.22-.81-.02-.01-.05-.03-.07-.04-.28,.21-.58,.43-.86,.64l-.12,.09c-.59,.45-1.15,.88-1.73,1.32-.43,.33-.86,.66-1.28,.98-.04,.03-.08,.06-.12,.1-.84,.65-1.66,1.3-2.46,1.94-.19,.15-.37,.29-.55,.44-1.76,1.41-3.43,2.79-5,4.14-.05,.04-.1,.09-.15,.13-.79,.68-1.56,1.35-2.3,2.02l-.06,.05c-.74,.66-1.45,1.31-2.14,1.96-.06,.06-.12,.12-.19,.18-.07,.06-.13,.13-.2,.19-.36,.34-.7,.67-1.05,1,.04,.1,.07,.2,.11,.3,.05,.14,.11,.28,.17,.42Z"/><path class="r" d="M265.94,301.04h0c.53-.63,1.1-1.27,1.69-1.93l.05-.05c.95-1.04,1.96-2.12,3.07-3.24,.06-.06,.12-.12,.19-.18l.26-.26s.01,0,.02-.02c0,0,.01-.02,.02-.02,.32-.31,.65-.64,.97-.96,.89-.86,1.84-1.75,2.81-2.63,.38-.35,.76-.7,1.16-1.05,.33-.3,.68-.6,1.02-.9,.33-.29,.66-.59,1.01-.88,.46-.4,.92-.79,1.39-1.19,.2-.17,.39-.33,.59-.5,.28-.23,.55-.47,.83-.7,.86-.72,1.75-1.44,2.65-2.16,.53-.43,1.08-.86,1.63-1.3l.12-.1s.04-.03,.06-.05c1.32-1.04,2.69-2.11,4.11-3.19,.07-.07,.15-.13,.23-.19,.76-.56,1.53-1.14,2.31-1.72l.69-.52h0c.25-.19,.52-.38,.78-.57,.64-.47,1.29-.94,1.94-1.41,.37-.27,.73-.53,1.11-.81,1.09-.78,2.21-1.58,3.35-2.38,.15-.1,.29-.21,.44-.31,.34-.24,.68-.48,1.02-.71,.63-.44,1.26-.88,1.9-1.32,.61-.42,1.22-.84,1.84-1.27,.35-.24,.7-.48,1.05-.71,.75-.51,1.48-1.01,2.24-1.53,3.39-2.29,6.92-4.42,10.49-6.42,.06-.1,.12-.2,.18-.3,.64-1.08,1.27-2.18,1.85-3.29,.06-.12,.12-.25,.19-.37,.61-1.17,1.19-2.36,1.73-3.55,3.08-6.7,5.18-13.83,6.25-21.21,.04-.27,.08-.56,.12-.87,.51-3.77,1.24-10.33,1.84-15.68,.44-3.98,.79-7.12,.95-8.24,.16-1.08,.34-2.15,.55-3.21,0-.03,.01-.06,.02-.09,.19-.98,.41-1.94,.64-2.9,.07-.27,.14-.55,.21-.82,.18-.71,.37-1.41,.58-2.11,.11-.36,.22-.71,.33-1.06,.2-.63,.41-1.26,.62-1.88,.06-.16,.1-.32,.16-.48,.01-.03,.03-.05,.04-.08,8.85-24.53,31.93-41.16,58.04-40.15,1.14,.04,2.32,.12,3.6,.24,4.18,.17,8.4-.17,12.55-.99h.03c1.11-.22,2.2-.49,3.28-.78,.35-.09,.69-.18,1.03-.28,.95-.27,1.89-.56,2.82-.88,.38-.13,.76-.27,1.14-.41,7.02-2.58,13.35-6.53,18.67-11.55-10,6.34-22.23,9.24-34.85,7.42-3.64-.53-7.23-1.45-10.67-2.73-.03-.01-.07-.03-.1-.04-1.29-.48-2.6-1.03-3.9-1.65-3.01-1.12-6.15-1.92-9.33-2.38-2.2-.32-4.4-.48-6.58-.48-4.62,0-9.18,.71-13.63,2.13-15.8,5.05-28.63,19.11-33.49,36.72-8.83,32.03-20.17,58.97-34.66,82.36-1.84,2.97-13.33,15.4-13.43,15.5-5.72,5.39-9.64,13.75-11.73,24.91-.16,.79-.28,1.55-.39,2.33-.05,.35-.1,.7-.14,1.05,.29-.37,.58-.74,.87-1.12,.49-.62,1.01-1.25,1.55-1.89Z"/><path class="s" d="M275.53,307.52c-.24-.23-.47-.47-.69-.72-.11-.12-.22-.24-.32-.36-.23-.27-.45-.54-.67-.82-.08-.1-.16-.2-.24-.31-.28-.39-.56-.78-.81-1.19-.05-.08-.09-.16-.14-.24-.16-.26-.32-.52-.46-.79-.02,.02-.05,.05-.07,.08-.47,.52-.92,1.03-1.36,1.54-.06,.07-.13,.15-.19,.22-.21,.25-.41,.5-.61,.75-.27,.33-.56,.67-.81,1-.2,.25-.39,.51-.59,.76-.49,.62-.97,1.25-1.44,1.87-.12,.16-.24,.32-.36,.48-.59,.79-1.17,1.58-1.73,2.36-.11,.15-.22,.31-.33,.47h0c-.05,.07-.09,.14-.14,.21,4.54,2.92,9.69,4.86,15.06,5.63,10.01,1.45,19.98-1.09,28.09-7.15,8.11-6.06,13.37-14.91,14.81-24.92,.99-6.9,.1-13.79-2.58-20.11-.09,.05-.18,.1-.27,.16-.32,.19-.64,.38-.96,.57-.52,.31-1.03,.6-1.55,.92-.63,.38-1.29,.79-1.94,1.2-.22,.14-.44,.27-.66,.41-.86,.55-1.75,1.14-2.68,1.76-1.87,1.25-3.68,2.5-5.46,3.72-.38,.26-.75,.52-1.13,.78-.6,.42-1.2,.84-1.79,1.25-.74,.52-1.47,1.04-2.18,1.55-.27,.2-.55,.39-.82,.59-.13,.09-.25,.18-.37,.27,.05,.04,.09,.08,.13,.12,.49,.39,.96,.79,1.41,1.23,.07,.06,.13,.13,.19,.2,.4,.39,.77,.8,1.13,1.23,.08,.1,.17,.2,.25,.3,.38,.48,.75,.97,1.08,1.49,.07,.1,.13,.21,.19,.31,.29,.46,.56,.94,.81,1.42,.05,.1,.1,.19,.15,.29,.27,.55,.51,1.12,.72,1.7,.05,.13,.09,.26,.14,.4,.19,.54,.35,1.09,.49,1.65,.02,.07,.04,.14,.06,.21,.14,.61,.25,1.24,.33,1.87,.02,.15,.03,.3,.05,.45,.07,.64,.11,1.29,.11,1.95,0,10.31-8.39,18.7-18.7,18.7-.5,0-1-.03-1.49-.07-.15-.01-.31-.03-.46-.05-.34-.04-.69-.08-1.03-.14-.17-.03-.33-.06-.5-.09-.34-.07-.68-.14-1.02-.23-.14-.04-.28-.07-.42-.1-.47-.13-.93-.27-1.38-.43-.04-.01-.07-.03-.11-.04-.42-.15-.82-.32-1.23-.5-.14-.06-.27-.13-.41-.2-.3-.15-.6-.3-.9-.46-.14-.08-.29-.16-.43-.24-.3-.17-.59-.36-.89-.55-.11-.07-.23-.14-.34-.22-.39-.27-.78-.55-1.15-.85-.05-.04-.1-.09-.15-.13-.32-.26-.63-.53-.93-.82-.11-.11-.22-.21-.33-.32Z"/><path class="aa" d="M343.77,254.76c-.28,.12-.57,.23-.85,.35-.53,.22-1.07,.44-1.6,.67-.47,.2-.95,.4-1.42,.61-.43,.18-.85,.37-1.28,.55-.92,.4-1.83,.81-2.76,1.22-.18,.08-.37,.17-.55,.25-.82,.38-1.65,.76-2.48,1.15-.24,.11-.48,.23-.71,.34-.88,.42-1.77,.85-2.65,1.29-.11,.05-.21,.11-.32,.16-1.3,.65-2.6,1.32-3.89,2,3.3,7.49,4.44,15.69,3.26,23.9h0c-1.68,11.61-7.78,21.87-17.18,28.9-7.67,5.74-16.8,8.75-26.2,8.75-2.11,0-4.24-.15-6.37-.46-6.26-.91-12.27-3.18-17.55-6.6-7.11,11.24-11.39,22.31-13.02,33.55-.85,5.85-1.08,11.74-.71,17.57,4.45-3.37,8.02-7.09,10.67-11.12,.3-.46,.71-1.12,1.15-1.82,.7-1.13,1.43-2.29,1.96-3.06,12.56-18,34.93-27.57,57.02-24.38,.76,.11,2.5,.44,4.33,.79,1.6,.31,3.42,.66,4.04,.75,25.49,3.68,49.98-11.31,58.26-35.66h0s.02-.08,.04-.11c.08-.24,.15-.49,.23-.74,.17-.53,.34-1.05,.5-1.59,.07-.25,.13-.5,.2-.75,.15-.54,.3-1.07,.42-1.61,.03-.14,.06-.29,.09-.43,.33-1.44,.61-2.9,.83-4.37,2.11-14.59-1.9-29.39-11.03-40.9-4.63,1.19-17.59,4.76-32.41,10.8Z"/><path class="ac" d="M419.83,156.18c-2.96,1.09-6.03,1.95-9.19,2.58h-.01c-.6,.12-1.2,.23-1.8,.33-24.59,8.86-47.52,21.5-68.18,37.58-.02,.06-.04,.12-.06,.17-.18,.53-.34,1.07-.51,1.6-.09,.3-.19,.6-.28,.9-.23,.81-.45,1.62-.65,2.44,0,.02-.01,.05-.02,.07-.42,1.76-.77,3.55-1.03,5.37-.15,1.02-.51,4.29-.93,8.06-.65,5.82-1.46,13.06-1.99,16.72-1.15,7.95-3.41,15.64-6.73,22.85l-.04,.09c15.01-7.29,29.79-12.16,38.96-14.84,.87-.29,1.75-.57,2.63-.85,.81-.26,1.62-.54,2.44-.79,1.24-.38,2.48-.73,3.72-1.09,.73-.21,1.45-.44,2.18-.64,1.34-.37,2.68-.71,4.02-1.05,.64-.16,1.27-.34,1.91-.5,1.38-.34,2.77-.65,4.16-.96,.6-.13,1.19-.28,1.79-.41,1.43-.31,2.87-.58,4.31-.86,.56-.11,1.11-.23,1.67-.33,1.45-.26,2.9-.5,4.34-.73,.55-.09,1.1-.19,1.66-.28,1.45-.22,2.9-.41,4.36-.6,.55-.07,1.11-.16,1.66-.23,1.48-.18,2.96-.33,4.43-.47,.54-.05,1.07-.12,1.61-.17,1.44-.13,2.89-.23,4.33-.33,.58-.04,1.15-.1,1.73-.13,1.38-.09,2.77-.14,4.15-.19,.64-.03,1.29-.07,1.93-.09,1.33-.04,2.66-.05,3.99-.07,.7,0,1.41-.03,2.11-.04,1.29,0,2.58,.03,3.86,.05,.75,.01,1.5,0,2.25,.03,1.28,.04,2.57,.1,3.86,.16,.76,.03,1.51,.05,2.27,.1,1.19,.07,2.38,.17,3.57,.25,.86,.06,1.72,.11,2.57,.18,.94,.08,1.88,.19,2.82,.28,1.11,.11,2.22,.21,3.33,.34,2.05,.24,4.1,.5,6.16,.8,1.58,.23,3.15,.48,4.73,.74,.48,.08,.95,.16,1.43,.25,1.15,.2,2.29,.41,3.43,.63,.29,.06,.59,.1,.88,.16-11.09-29.79-29.59-56.33-53.81-77.11Z"/><path class="v" d="M475.97,239.95c-.19-.04-.38-.08-.57-.12-1.96-.41-3.94-.81-5.93-1.17-.29-.05-.57-.1-.86-.15-2.1-.37-4.2-.72-6.31-1.02-1.85-.27-3.71-.5-5.56-.72-.63-.07-1.26-.14-1.9-.2-1.23-.13-2.45-.26-3.67-.37-.74-.07-1.47-.12-2.21-.18-1.13-.09-2.25-.17-3.38-.24-.76-.05-1.52-.09-2.28-.13-1.13-.06-2.26-.1-3.38-.14-.73-.03-1.47-.05-2.2-.07-1.25-.03-2.5-.04-3.74-.05-.6,0-1.2-.02-1.79-.01-1.81,0-3.62,.04-5.42,.09-.49,.02-.99,.04-1.48,.06-1.34,.05-2.68,.11-4.02,.19-.71,.04-1.41,.1-2.12,.14-1.13,.08-2.26,.16-3.39,.26-.75,.07-1.5,.14-2.25,.21-1.1,.11-2.2,.23-3.3,.35-.74,.09-1.48,.17-2.22,.27-1.15,.15-2.29,.31-3.44,.47-.68,.1-1.35,.19-2.03,.29-1.41,.22-2.83,.46-4.24,.71-.4,.07-.79,.13-1.19,.2-1.79,.33-3.57,.68-5.36,1.06-.56,.12-1.11,.25-1.67,.37-1.25,.28-2.49,.56-3.74,.86-.68,.16-1.36,.34-2.04,.51-.68,.17-1.36,.35-2.04,.53,.23,.31,.44,.64,.66,.95,.25,.36,.51,.72,.76,1.09,.33,.5,.65,1,.97,1.51,.22,.35,.45,.7,.67,1.06,.33,.55,.65,1.12,.96,1.68,.18,.32,.36,.63,.54,.95,.43,.81,.84,1.63,1.24,2.46,.08,.17,.16,.34,.24,.51,.38,.82,.74,1.64,1.08,2.47,.14,.35,.27,.7,.4,1.05,.23,.59,.46,1.17,.66,1.76,.14,.4,.27,.81,.4,1.22,.18,.55,.36,1.09,.52,1.65,.13,.43,.24,.86,.36,1.3,.15,.54,.29,1.07,.42,1.61,.11,.45,.21,.89,.3,1.34,.12,.53,.23,1.07,.33,1.61,.09,.46,.17,.91,.24,1.37,.09,.54,.17,1.07,.24,1.61,.06,.46,.12,.93,.17,1.39,.06,.54,.11,1.08,.16,1.63,.04,.46,.08,.93,.11,1.39,.03,.55,.05,1.1,.07,1.65,.02,.46,.03,.92,.04,1.38,0,.57,0,1.14-.02,1.71,0,.45,0,.89-.03,1.34-.03,.61-.07,1.22-.12,1.83-.03,.4-.05,.81-.08,1.21-.08,.83-.18,1.67-.29,2.5-.02,.17-.04,.35-.06,.52-.01,.09-.03,.19-.05,.28-.11,.73-.23,1.46-.37,2.19-.06,.3-.12,.59-.18,.89-.07,.36-.14,.73-.22,1.09,24.54-10.14,51.3-13.48,77.8-9.65,4.91,.71,9.79,1.66,14.57,2.84-1.19-14.76-4.14-29.34-8.78-43.42Z"/></g></g></g></svg>